#!OML:ASF F:\VICON\USERDATA\INSTALL\rory3\rory3.ASF
:FULLY-SPECIFIED
:DEGREES
83
root -0.24095863527462713 17.760885125587155 40.81330607064032 -3.8822922597101437 0.15706054830169314 -3.6239730067046483
lfemur -5.523808884935252 -4.783986194077572 -12.825831854583058
ltibia 45.957138331178
lfoot 6.581082737890804 -9.795460914573196
ltoes -12.776488754737244
rfemur -22.355609292867527 -0.311835897896688 29.37607002625956
rtibia 40.24565225296655
rfoot 1.0207009329683423 3.287531578293482
rtoes 18.025477541557834
lowerback 1.0 -1.7031155459697167 0.5995351545234873
upperback 0.5575608311565383 -0.7845949183548566 3.268749515367891
thorax -4.82061970074879 -0.5713027879346659 3.136565576088011
lowerneck -15.752651465999687 -2.309486390289755 -2.3263479947651593
upperneck 22.30488492827362 -2.845056155613114 -0.12257330546695328
head 9.799307631267991 -1.606367512632886 -0.2125480496399083
lclavicle -3.0473792013437836e-14 4.0960041502486015e-14
lhumerus -25.02393708058536 1.7104454525335349 81.75178473345909
lradius 22.874627011065357
lwrist 5.429133630310295
lhand -24.61024245382043 22.23412778542874
lfingers nan
lthumb 2.2422412502357907 52.5701209318917
rclavicle -3.196194420006048e-14 4.244003559309614e-14
rhumerus -42.326302387584036 -39.083297357459415 -61.83344365225771
rradius 13.91370390656468
rwrist 24.515149203798615
rhand -18.460302725750836 1.0
rfingers nan
rthumb 7.552182685011227 -6.83487705520446
84
root -0.2800583304428479 17.79914840676697 41.583928694408705 -3.7948895961073337 -0.22148930342349815 -4.442464429550045
lfemur -12.029801398887113 -3.367092388676613 -11.24957932043883
ltibia 54.98347676738593
lfoot 8.7583718181005 -10.223260309303502
ltoes -5.082603945412188
rfemur -20.663858152126465 0.8090874843977542 30.717708527372707
rtibia 40.43817615129582
rfoot -0.2100381563082454 2.3645852330067836
rtoes 21.72628675102006
lowerback 1.0 -1.4598834545536687 1.3311893356911333
upperback 0.3670913284440751 -0.25182140129539043 3.3428958620308866
thorax -5.263197830287964 -0.38520969625558515 2.745134981824494
lowerneck -15.619971096836478 -2.4033430986792554 -2.5398130570356106
upperneck 22.258445314802785 -3.103375614807353 0.3475252364090639
head 9.783448455275522 -1.6530976587420203 -0.04473283910721583
lclavicle 5.643604506546541e-15 1.6867585508529222e-14
lhumerus -25.539866164451016 0.6475407097447397 82.30298148529735
lradius 20.957866878316125
lwrist 5.926245599881216
lhand -26.94432394446651 22.7083530295229
lfingers nan
lthumb -0.000772025637471141 53.00413759600412
rclavicle 4.0300457983861105e-15 1.7707665029437687e-14
rhumerus -40.82208930761068 -38.81715142644953 -62.93497117631138
rradius 13.339475876802831
rwrist 25.905484070687066
rhand -18.71848060337727 1.0
rfingers nan
rthumb 7.315773646594012 -6.615474717076752
85
root -0.30591976574376045 17.81689141861285 41.84121648738732 -4.320362779963736 -0.4520543894793245 -4.577660631839901
lfemur -16.637525407920453 -1.9909895969906852 -11.007390427812128
ltibia 61.01057120956649
lfoot 4.555987365380067 -8.758411419628732
ltoes -11.722635322239261
rfemur -18.814351537738002 1.457455128359662 31.18639288771754
rtibia 41.605777522159656
rfoot -2.4320202462736997 1.7809559656217955
rtoes 20.98402799548861
lowerback 1.0 -1.2177558809403377 1.2739732499021046
upperback 0.60125157752625 0.11520308556483178 2.9578087812313765
thorax -5.3181283455999635 -0.23232598276299216 2.3883843210884823
lowerneck -15.387808347505102 -2.547031516884836 -2.403742758794742
upperneck 21.98045239010621 -3.4453514765944906 0.4596621581598214
head 9.617386310241267 -1.7591183769450855 -0.05307299224561364
lclavicle 2.4221031502150012e-14 -1.0744713529645601e-14
lhumerus -27.147817073075128 2.4636456531288116 82.04650660098245
lradius 20.872219386012368
lwrist 2.252102551826887
lhand -26.229722149650705 22.549085379928822
lfingers nan
lthumb 0.7174245884737587 52.89893010907212
rclavicle 2.304007481204071e-14 -9.818440143963252e-15
rhumerus -37.91652178016335 -34.1950541294963 -67.9341836475524
rradius 14.69281672087373
rwrist 21.78254089546025
rhand -18.539644939762617 1.0
rfingers nan
rthumb 7.485038439524272 -6.703800284023674
86
root -0.3165332693582702 17.835074014452157 42.38467913604901 -4.309062419589389 -0.5234218491646647 -4.825828679798613
lfemur -21.268895970588435 -1.6806381630179468 -10.48506994832045
ltibia 64.46500647754007
lfoot 0.933684272745432 -7.237011625752707
ltoes -16.782145881635895
rfemur -17.253233556089036 1.6645507781841489 32.2120589723699
rtibia 42.054918777244026
rfoot -4.112089807126447 0.7369169519402758
rtoes 19.07592196851655
lowerback 1.0 -1.0919736084024405 1.691807774983931
upperback 0.6845057415171207 0.41469926014264274 2.880531663096991
thorax -5.327641176097136 -0.12021523806479839 1.991261873397277
lowerneck -15.31636389009486 -2.581152956562137 -2.460457222828664
upperneck 22.098754917296176 -3.4697712896847865 0.4151582893392714
head 9.652973904127034 -1.778136541265263 -0.06276362743170281
lclavicle 2.5308345505669104e-14 -3.4347060342319454e-15
lhumerus -28.162556134310208 2.727516157176921 82.21656168078265
lradius 20.12817161221544
lwrist 2.2246698719526594
lhand -26.984541265217132 20.853619098722262
lfingers nan
lthumb 0.007791673676747157 51.240662252633754
rclavicle 2.4522680392996054e-14 -2.5049525691820685e-15
rhumerus -34.73759387872084 -31.364418494018956 -71.25305318689414
rradius 15.36036239393572
rwrist 20.095214812017417
rhand -17.824986257386826 1.0
rfingers nan
rthumb 8.198505171925518 -5.89127149889179
87
root -0.31340927721488043 17.832320589017996 42.340297376911785 -4.092173774160648 -0.9050003725082505 -5.141062015030833
lfemur -25.484017306965917 -1.3653227606901652 -9.974053971296614
ltibia 65.51381475709084
lfoot -1.2858757369345275 -6.09647715672094
ltoes -12.728007366201181
rfemur -15.794466193120018 1.9749853742492216 33.125839403801386
rtibia 42.342100098691546
rfoot -5.862600632103601 0.3230696902690209
rtoes 19.751948231384347
lowerback 1.0 -0.7289799268683863 2.2527614788278507
upperback 0.841438433670147 1.011208279793304 2.7121050180524544
thorax -5.021824209030056 0.12744590410450993 1.3645507765475686
lowerneck -15.555373517861312 -2.715550705012177 -2.2024853572216863
upperneck 22.13629638874504 -3.7701075356385747 0.27014761904899126
head 9.700727500703252 -1.8801398193566565 -0.1749811679160338
lclavicle 2.7808650553936206e-14 -1.621718171950944e-14
lhumerus -29.04221403334657 2.1408714593734093 82.48271962705428
lradius 19.490177094275083
lwrist 3.160248288245207
lhand -26.914960550429736 20.887491590901487
lfingers nan
lthumb 0.15965222901595122 51.41173514888605
rclavicle 2.7344431213482302e-14 -1.505174482294471e-14
rhumerus -31.997811579416904 -27.338193736225485 -74.6694844884799
rradius 17.104349888010375
rwrist 17.366529880106327
rhand -18.149590288528792 1.0
rfingers nan
rthumb 7.868743860761473 -8.050438498620673
